<svg width="102" height="27" viewBox="0 0 102 27" fill="none" xmlns="http://www.w3.org/2000/svg">
<path d="M0.571289 14.1044V10.3544L15.5713 3.74929V8.06392L5.3014 12.1868L5.4399 11.9631V12.4957L5.3014 12.272L15.5713 16.3949V20.7095L0.571289 14.1044ZM19.5629 1.18182H25.2518L31.2604 15.8409H31.516L37.5246 1.18182H43.2135V23H38.739V8.79901H38.5579L32.9116 22.8935H29.8648L24.2184 8.74574H24.0373V23H19.5629V1.18182ZM46.4141 23V1.18182H51.027V10.1839H60.3914V1.18182H64.9936V23H60.3914V13.9872H51.027V23H46.4141ZM83.9579 0.159089L76.9266 26.2812H73.0168L80.0481 0.159089H83.9579ZM101.429 16.1499L86.4287 22.755V18.4403L96.6986 14.3175L96.5601 14.5412V14.0085L96.6986 14.2322L86.4287 10.1094V5.79474L101.429 12.3999V16.1499Z" fill="#F9FAFB"/>
</svg>
