<svg width="59" height="45" viewBox="0 0 59 45" fill="none" xmlns="http://www.w3.org/2000/svg">
<path d="M50.8054 26.108C48.7548 26.1187 46.9788 26.6107 45.4908 27.3454C44.9468 26.2587 44.3948 25.3027 44.3028 24.592C44.1948 23.7627 44.0694 23.2667 44.2001 22.2787C44.3308 21.2907 44.9028 19.8907 44.8948 19.7854C44.8868 19.68 44.7668 19.1774 43.5841 19.168C42.4014 19.16 41.3894 19.396 41.2708 19.708C41.1521 20.02 40.9241 20.7227 40.7828 21.456C40.5761 22.528 38.4214 26.3534 37.1988 28.3534C36.7988 27.572 36.4588 26.884 36.3881 26.34C36.2801 25.5107 36.1548 25.0147 36.2854 24.0267C36.4161 23.0387 36.9881 21.6387 36.9801 21.5334C36.9721 21.428 36.8521 20.9254 35.6694 20.916C34.4868 20.908 33.4748 21.144 33.3561 21.456C33.2374 21.768 33.1094 22.4974 32.8681 23.204C32.6254 23.9094 29.7628 30.2894 29.0121 31.944C28.6294 32.7867 28.2974 33.464 28.0628 33.9254L28.0614 33.9227C28.0614 33.9227 28.0468 33.9534 28.0228 34.0054C27.8214 34.3987 27.7028 34.616 27.7028 34.616C27.7028 34.616 27.7041 34.6187 27.7068 34.624C27.5468 34.9134 27.3761 35.1814 27.2921 35.1814C27.2334 35.1814 27.1148 34.412 27.3174 33.356C27.7441 31.1427 28.7668 27.692 28.7574 27.572C28.7521 27.5107 28.9481 26.9094 28.0894 26.5947C27.2548 26.2894 26.9574 26.7987 26.8814 26.8C26.8081 26.8014 26.7534 26.98 26.7534 26.98C26.7534 26.98 27.6828 23.0987 24.9801 23.0987C23.2894 23.0987 20.9481 24.948 19.7948 26.624C19.0668 27.0214 17.5081 27.872 15.8561 28.78C15.2214 29.1294 14.5734 29.4854 13.9588 29.824C13.9174 29.7774 13.8748 29.732 13.8321 29.6854C10.5534 26.188 4.49476 23.7147 4.75076 19.012C4.84409 17.3027 5.43876 12.8014 16.3948 7.3427C25.3694 2.8707 32.5548 4.10136 33.7961 6.82803C35.5694 10.7254 29.9561 17.9667 20.6361 19.012C17.0854 19.4107 15.2148 18.0334 14.7494 17.5214C14.2601 16.9814 14.1868 16.9574 14.0041 17.0587C13.7068 17.224 13.8948 17.7 14.0041 17.984C14.2828 18.708 15.4241 19.992 17.3708 20.632C19.0841 21.1947 23.2534 21.5027 28.2948 19.552C33.9428 17.368 38.3521 11.2907 37.0561 6.21203C35.7388 1.0467 27.1734 -0.65197 19.0668 2.22803C14.2361 3.9427 9.01342 6.63336 5.25743 10.1454C0.792093 14.3214 0.080093 17.9574 0.373426 19.476C1.41609 24.8734 8.85476 28.388 11.8334 30.992C11.6868 31.0734 11.5481 31.1494 11.4228 31.2187C9.92943 31.9574 4.25876 34.9254 2.84009 38.06C1.23076 41.616 3.09609 44.168 4.33076 44.512C8.15609 45.576 12.0814 43.6614 14.1921 40.5147C16.3014 37.3694 16.0441 33.272 15.0761 31.4027C15.0641 31.38 15.0508 31.3574 15.0388 31.3334C15.4241 31.1054 15.8174 30.8734 16.2068 30.644C16.9668 30.1974 17.7134 29.7814 18.3601 29.4294C17.9974 30.4214 17.7321 31.612 17.5948 33.3307C17.4321 35.3494 18.2601 37.9587 19.3428 38.9854C19.8201 39.4374 20.3934 39.448 20.7561 39.448C22.0161 39.448 22.5908 38.4 23.2241 37.16C24.0001 35.64 24.6894 33.8694 24.6894 33.8694C24.6894 33.8694 23.8254 38.6507 26.1801 38.6507C27.0388 38.6507 27.9014 37.5374 28.2868 36.9707C28.2881 36.9774 28.2881 36.98 28.2881 36.98C28.2881 36.98 28.3108 36.9427 28.3548 36.8694C28.4441 36.7334 28.4948 36.6467 28.4948 36.6467C28.4948 36.6467 28.4961 36.6374 28.4988 36.6214C28.8441 36.0227 29.6094 34.6574 30.7561 32.4054C32.2388 29.496 33.6601 25.8507 33.6601 25.8507C33.6601 25.8507 33.7921 26.7414 34.2254 28.216C34.4801 29.0827 35.0214 30.0414 35.4494 30.9614C35.1054 31.4387 34.8948 31.712 34.8948 31.712C34.8948 31.712 34.8961 31.7174 34.9001 31.7267C34.6254 32.092 34.3174 32.4854 33.9948 32.8694C32.8241 34.2627 31.4308 35.8547 31.2441 36.3134C31.0241 36.8547 31.0761 37.252 31.5014 37.5734C31.8121 37.8067 32.3641 37.844 32.9414 37.8054C33.9934 37.7347 34.7321 37.4734 35.0974 37.3147C35.6668 37.1134 36.3294 36.7974 36.9508 36.34C38.0988 35.496 38.7908 34.2894 38.7241 32.6894C38.6868 31.808 38.4068 30.9347 38.0508 30.1107C38.1548 29.9614 38.2588 29.8094 38.3641 29.6574C40.1734 27.012 41.5774 24.1054 41.5774 24.1054C41.5774 24.1054 41.7094 24.996 42.1428 26.4707C42.3614 27.216 42.7948 28.0307 43.1841 28.828C41.4828 30.2107 40.4281 31.8174 40.0614 32.8707C39.3841 34.82 39.9148 35.7027 40.9094 35.904C41.3601 35.9947 41.9974 35.788 42.4761 35.5854C43.0721 35.388 43.7881 35.0587 44.4574 34.5667C45.6054 33.7227 46.7094 32.5414 46.6428 30.9427C46.6121 30.2147 46.4148 29.492 46.1468 28.7987C47.5894 28.1974 49.4561 27.864 51.8348 28.1414C56.9374 28.7374 57.9374 31.9227 57.7468 33.256C57.5548 34.5894 56.4854 35.3227 56.1268 35.544C55.7694 35.7654 55.6601 35.8427 55.6894 36.0067C55.7334 36.2454 55.8988 36.2374 56.2041 36.1854C56.6241 36.1147 58.8828 35.1014 58.9801 32.64C59.1014 29.512 56.1081 26.08 50.8054 26.108ZM11.4761 39.3667C9.78543 41.2107 7.42543 41.9067 6.41209 41.32C5.31876 40.6867 5.75209 37.972 7.82543 36.0147C9.08943 34.8227 10.7214 33.724 11.8041 33.048C12.0508 32.9 12.4121 32.6827 12.8521 32.4187C12.9254 32.3774 12.9668 32.3547 12.9668 32.3547L12.9654 32.352C13.0508 32.3014 13.1374 32.2494 13.2268 32.1947C13.9828 34.98 13.2508 37.432 11.4761 39.3667ZM23.7894 30.9974C23.2014 32.432 21.9694 36.104 21.2188 35.9067C20.5748 35.7374 20.1828 32.9467 21.0908 30.2C21.5468 28.8174 22.5228 27.1654 23.0961 26.524C24.0188 25.492 25.0348 25.1547 25.2814 25.5734C25.5948 26.1067 24.1588 30.0974 23.7894 30.9974ZM33.9614 35.8507C33.7121 35.9814 33.4828 36.0627 33.3774 36C33.2988 35.9534 33.4801 35.7814 33.4801 35.7814C33.4801 35.7814 34.7521 34.412 35.2534 33.7894C35.5454 33.4267 35.8828 32.996 36.2508 32.516C36.2534 32.564 36.2548 32.612 36.2548 32.6587C36.2521 34.2987 34.6681 35.4054 33.9614 35.8507ZM41.7974 34.064C41.6108 33.932 41.6428 33.504 42.2548 32.1694C42.4948 31.6454 43.0441 30.764 43.9961 29.9214C44.1068 30.268 44.1734 30.6 44.1721 30.9094C44.1601 32.9734 42.6881 33.744 41.7974 34.064Z" fill="#F06292"/>
</svg>
